<svg width="24" height="24" viewBox="0 0 24 24" fill="none" xmlns="http://www.w3.org/2000/svg">
<g clip-path="url(#clip0_70_140)">
<path d="M22.8506 5.72844L18.2703 1.14814C17.9239 0.802089 17.3637 0.801828 17.0173 1.14753L2.5967 15.5389C2.48056 15.6548 2.3987 15.8007 2.36059 15.9603L0.912627 22.0181C0.841099 22.3175 0.930379 22.6331 1.14813 22.8509C1.31627 23.019 1.54262 23.1106 1.77491 23.1106C1.84375 23.1106 1.91293 23.1023 1.98086 23.0861L8.03873 21.6382C8.19832 21.6 8.34428 21.5185 8.46012 21.402L22.8512 6.9814C23.1969 6.63509 23.1967 6.07419 22.8506 5.72844ZM7.38269 19.9721L2.97287 21.0262L4.02665 16.6164L17.6432 3.02813L20.9709 6.35583L7.38269 19.9721Z" fill="#6A75CA"/>
<path d="M14.8722 4.51801L13.6187 5.77148L18.2282 10.3809L19.4816 9.12742L14.8722 4.51801Z" fill="#6A75CA"/>
<path d="M15.9241 6.82176L4.84351 17.9023L6.09698 19.1558L17.1776 8.07523L15.9241 6.82176Z" fill="#6A75CA"/>
<path d="M3.82079 15.5988L2.56731 16.8523L7.14748 21.4325L8.40095 20.179L3.82079 15.5988Z" fill="#6A75CA"/>
</g>
<defs>
<clipPath id="clip0_70_140">
<rect width="22.2222" height="22.2222" fill="white" transform="translate(0.888885 0.888916)"/>
</clipPath>
</defs>
</svg>
